<?xml version="1.0" encoding="utf-8"?>
<!-- Generator: Adobe Illustrator 22.0.1, SVG Export Plug-In . SVG Version: 6.00 Build 0)  -->
<svg version="1.1" id="图层_1" xmlns="http://www.w3.org/2000/svg" xmlns:xlink="http://www.w3.org/1999/xlink" x="0px" y="0px"
	 viewBox="0 0 122 94" style="enable-background:new 0 0 122 94;" xml:space="preserve">
<style type="text/css">
	.st0{fill:#FFD238;}
	.st1{fill:#FFFFFF;}
</style>
<title>icon</title>
<desc>Created with Sketch.</desc>
<g>
	<ellipse cx="110.1" cy="56.3" rx="9.3" ry="11"/>
	<ellipse cx="11.9" cy="56.3" rx="9.3" ry="11"/>
	<path class="st0" d="M60.8,0.8L49.1,30.7c-0.3,0.8,0.3,1.7,1.2,1.7H62h11.6c0.9,0,1.5-0.9,1.2-1.7L63.2,0.8
		C62.7-0.2,61.2-0.2,60.8,0.8z"/>
	<path class="st0" d="M112,56.2c0-15-9.2-27.8-22.3-33.2c-0.8-0.4-10.5-4.6-27.8-4.6c-17.7,0-27.1,4.3-27.8,4.6
		c-13.1,5.3-22.3,18.2-22.3,33.2c0,15,9.2,27.8,22.3,33.1h0c0,0,9.8,4.6,27.8,4.6c18.4,0,27.8-4.6,27.8-4.6h0
		C102.8,84,112,71.1,112,56.2z"/>
	<path d="M104.7,56.2c0-11.2-6.5-20.8-15.9-25.3h0c0,0-7.9-4.6-26.5-4.6c-18.5,0-26.5,4.6-26.5,4.6h0C26.4,35.4,19.9,45,19.9,56.2
		c0,11.2,6.6,20.9,16.1,25.4h-0.1c0,0,7.9,4.6,26.5,4.6c18.5,0,26.5-4.6,26.5-4.6h-0.1C98.1,77.1,104.7,67.4,104.7,56.2z"/>
	<path class="st1" d="M39,36.3c-8.3,0-15,8.9-15,19.9c0,11,6.7,19.9,15,19.9s15-8.9,15-19.9C54,45.2,47.3,36.3,39,36.3z"/>
	<path d="M39,46c-3.1,0-5.6,4.6-5.6,10.2c0,5.6,2.5,10.2,5.6,10.2s5.6-4.6,5.6-10.2C44.6,50.6,42.1,46,39,46z"/>
	<path class="st1" d="M84.9,36.3c-8.3,0-15,8.9-15,19.9c0,11,6.7,19.9,15,19.9s15-8.9,15-19.9C99.9,45.2,93.2,36.3,84.9,36.3z"/>
	<path d="M85.7,46c-3.1,0-5.6,4.6-5.6,10.2c0,5.6,2.5,10.2,5.6,10.2c3.1,0,5.6-4.6,5.6-10.2C91.3,50.6,88.8,46,85.7,46z"/>
	<path class="st0" d="M63.7,41.3c-2.4,0-4.4-1.9-4.4-4.1c0-2.3,2-4.1,4.4-4.1c0.9,0,1.7,0.3,2.4,0.7c-1.1-1.1-2.6-1.8-4.3-1.8
		c-3.2,0-5.7,2.4-5.7,5.5c0,3,2.6,5.5,5.7,5.5c2.1,0,4-1.1,5-2.8C66,40.8,64.9,41.3,63.7,41.3z"/>
</g>
</svg>
